{"title":"Primal.Fear.1996.720p.x264.aac.mp4.anoXmous","uid":6880017,"size":733140753,"categoryP":"video","categoryS":"hd___movies","magnet":"?xt=urn:btih:6ee213e5b9d4af7ea1d4d29d2c5bd38d620a06dc&amp;dn=Primal.Fear.1996.720p.x264.aac.mp4.anoXmous&amp;tr=udp%3A%2F%2Ftracker.openbittorrent.com%3A80&amp;tr=udp%3A%2F%2Fopen.demonii.com%3A1337&amp;tr=udp%3A%2F%2Ftracker.coppersurfer.tk%3A6969&amp;tr=udp%3A%2F%2Fexodus.desync.com%3A6969","seeders":3,"leechers":3,"uploader":"anoXmous","files":-1,"time":1323620399,"description":"Primal.Fear.1996.720p.x264.aac.mp4.anoXmous\n\nFormat                           : MPEG-4\nFormat profile                   : Base Media\nCodec ID                         : isom\nFile size                        : 699 MiB\nDuration                         : 2h 10mn\nOverall bit rate mode            : Variable\nOverall bit rate                 : 749 Kbps\n\nVideo\nID                               : 1\nFormat                           : AVC\nFormat/Info                      : Advanced Video Codec\nFormat profile                   : &lt;a class=&quot;__cf_email__&quot; href=&quot;/cdn-cgi/l/email-protection&quot; data-cfemail=&quot;440c2d232c0408706a75&quot;&gt;[email&amp;#160;protected]&lt;/a&gt;&lt;script cf-hash='f9e31' type=&quot;text/javascript&quot;&gt;\n/* &lt;![CDATA[ */!function(){try{var t=&quot;currentScript&quot;in document?document.currentScript:function(){for(var t=document.getElementsByTagName(&quot;script&quot;),e=t.length;e--;)if(t[e].getAttribute(&quot;cf-hash&quot;))return t[e]}();if(t&amp;&amp;t.previousSibling){var e,r,n,i,c=t.previousSibling,a=c.getAttribute(&quot;data-cfemail&quot;);if(a){for(e=&quot;&quot;,r=parseInt(a.substr(0,2),16),n=2;a.length-n;n+=2)i=parseInt(a.substr(n,2),16)^r,e+=String.fromCharCode(i);e=document.createTextNode(e),c.parentNode.replaceChild(e,c)}}}catch(u){}}();/* ]]&gt; */&lt;/script&gt;\nFormat settings, CABAC           : Yes\nFormat settings, ReFrames        : 4 frames\nCodec ID                         : avc1\nCodec ID/Info                    : Advanced Video Coding\nDuration                         : 2h 10mn\nBit rate                         : 678 Kbps\nMaximum bit rate                 : 3 809 Kbps\nWidth                            : 1 280 pixels\nHeight                           : 720 pixels\nDisplay aspect ratio             : 16:9\nFrame rate mode                  : Constant\nFrame rate                       : 23.976 fps\nColor space                      : YUV\nChroma subsampling               : 4:2:0\nBit depth                        : 8 bits\nScan type                        : Progressive\nBits/(Pixel*Frame)               : 0.031\nStream size                      : 632 MiB (90%)\nWriting library                  : x264 core 119 r2106 07efeb4\n\nAudio\nID                               : 2\nFormat                           : AAC\nFormat/Info                      : Advanced Audio Codec\nFormat profile                   : LC\nCodec ID                         : 40\nDuration                         : 2h 10mn\nBit rate mode                    : Variable\nBit rate                         : 68.5 Kbps\nMaximum bit rate                 : 96.8 Kbps\nChannel(s)                       : 2 channels\nChannel positions                : Front: L R\nSampling rate                    : 48.0 KHz \nCompression mode                 : Lossy\nStream size                      : 63.9 MiB (9%)\nLanguage                         : English\n\n                              SUB:\n\n    Primal.Fear.1996.720p.x264.aac.mp4.anoXmous_swe.srt\n\n           &lt;a href=&quot; http://www.imdb.com/title/tt0117381/&quot; rel=&quot;nofollow&quot; target=&quot;_NEW&quot;&gt; http://www.imdb.com/title/tt0117381/&lt;/a&gt;\n\n +++++++ This work very fine with PSP and XBOX :) +++++++++\n\n\n","torrent":{"xt":"urn:btih:6ee213e5b9d4af7ea1d4d29d2c5bd38d620a06dc","amp;dn":"Primal.Fear.1996.720p.x264.aac.mp4.anoXmous","amp;tr":["udp%3A%2F%2Ftracker.openbittorrent.com%3A80","udp%3A%2F%2Fopen.demonii.com%3A1337","udp%3A%2F%2Ftracker.coppersurfer.tk%3A6969","udp%3A%2F%2Fexodus.desync.com%3A6969"],"infoHash":"6ee213e5b9d4af7ea1d4d29d2c5bd38d620a06dc","infoHashBuffer":{"type":"Buffer","data":[110,226,19,229,185,212,175,126,161,212,210,157,44,91,211,141,98,10,6,220]},"announce":[],"urlList":[]}}